<?xml version="1.0" encoding="UTF-8"?>
<svg width="44px" height="44px" viewBox="0 0 44 44" version="1.1" xmlns="http://www.w3.org/2000/svg" xmlns:xlink="http://www.w3.org/1999/xlink">
    <!-- Generator: Sketch 58 (84663) - https://sketch.com -->
    <title>icon_sns_line_white</title>
    <desc>Created with Sketch.</desc>
    <g id="Page-1" stroke="none" stroke-width="1" fill="none" fill-rule="evenodd">
        <g id="NEWS-DETAIL" transform="translate(-620.000000, -2755.000000)" fill="#FFFFFF">
            <g id="social" transform="translate(116.000000, 2745.000000)">
                <g id="line" transform="translate(465.000000, 0.000000)">
                    <g id="Group-4" transform="translate(39.000000, 10.000000)">
                        <path d="M33.136045,19.5606046 C33.6131585,19.5606046 34,19.9819967 34,20.5004332 C34,21.0180033 33.6131585,21.4393954 33.136045,21.4393954 L30.7271134,21.4393954 L30.7271134,23.1203427 L33.136045,23.1203427 C33.6126274,23.1203427 34,23.5423125 34,24.0593049 C34,24.5788967 33.6126274,25 33.136045,25 L29.8631585,25 C29.3879036,25 29,24.5788967 29,24.0593049 L29,20.5027438 L29,20.5004332 L29,20.4984115 L29,16.9438721 L29,16.9398286 C29,16.4222586 29.386576,16 29.8631585,16 L33.136045,16 C33.6131585,16 34,16.4222586 34,16.9398286 C34,17.4582651 33.6131585,17.8802349 33.136045,17.8802349 L30.7271134,17.8802349 L30.7271134,19.5606046 L33.136045,19.5606046 Z M28,24.0593049 C28,24.4659671 27.7507502,24.8243959 27.3771554,24.9514778 C27.2833367,24.9841148 27.1855971,25 27.0870174,25 C26.8036007,25 26.5313863,24.8602099 26.3597119,24.6236642 L22.8214843,19.6556272 L22.8214843,24.0593049 C22.8214843,24.5788967 22.4134427,25 21.9104621,25 C21.4088818,25 21,24.5788967 21,24.0593049 L21,16.9398286 C21,16.5348994 21.2495299,16.1767594 21.6214443,16.0482334 C21.7155431,16.0164629 21.8138428,16 21.9110222,16 C22.194999,16 22.4677736,16.1403678 22.6397279,16.3766246 L26.1776755,21.3463945 L26.1776755,16.9398286 C26.1776755,16.4222586 26.5876775,16 27.0886977,16 C27.5922384,16 28,16.4222586 28,16.9398286 L28,24.0593049 Z M19,24.0593049 C19,24.5788967 18.5511835,25 18.0003074,25 C17.4488165,25 17,24.5788967 17,24.0593049 L17,16.9398286 C17,16.4222586 17.4488165,16 18.0003074,16 C18.5511835,16 19,16.4222586 19,16.9398286 L19,24.0593049 Z M15.1368415,25 L11.864486,25 C11.3873726,25 11,24.5788967 11,24.0593049 L11,16.9398286 C11,16.4222586 11.3873726,16 11.864486,16 C12.3402719,16 12.7276444,16.4222586 12.7276444,16.9398286 L12.7276444,23.1203427 L15.1368415,23.1203427 C15.614486,23.1203427 16,23.5423125 16,24.0593049 C16,24.5788967 15.614486,25 15.1368415,25 L15.1368415,25 Z M40,20.0522036 C40,12.3042879 32.1481646,6 22.4990128,6 C12.850143,6 5,12.3042879 5,20.0522036 C5,26.998197 11.2257324,32.8179262 19.6354918,33.9182318 C20.2046984,34.0388132 20.9806584,34.2911411 21.1766934,34.7720712 C21.3524197,35.2088998 21.2914937,35.8944276 21.2325422,36.3368387 C21.2325422,36.3368387 21.0283274,37.5588422 20.9837611,37.8206603 C20.9081678,38.257768 20.6317444,39.5319677 22.4990128,38.7532125 C24.3676915,37.9747365 32.5777491,32.880729 36.2482572,28.6983394 L36.2468469,28.6983394 C38.7845831,25.9475754 40,23.1541053 40,20.0522036 L40,20.0522036 Z" id="Fill-1"></path>
                    </g>
                </g>
            </g>
        </g>
    </g>
</svg>