<svg width="64" height="64" xmlns="http://www.w3.org/2000/svg"><path d="M32 55.536c2.79-2.86 8.09-8.26 9.446-9.664 3.812-3.946 6.545-6.939 8.827-9.723 5.4-6.59 7.977-11.774 7.977-16.542 0-6.766-3.89-11.005-9.732-11.732-5.793-.722-11.887 2.265-14.99 7.814L32 18.42l-1.527-2.731c-3.126-5.589-9.214-8.57-15.006-7.83-5.829.745-9.717 5-9.717 11.748 0 4.768 2.577 9.95 7.978 16.542 2.282 2.784 5.015 5.776 8.827 9.723 1.351 1.399 6.652 6.8 9.445 9.664z" fill="none" fill-rule="nonzero" stroke="#E25463" stroke-width="3.5" fill-opacity="0"/></svg>