<?xml version="1.0" encoding="UTF-8"?>
<svg width="32px" height="32px" viewBox="0 0 32 32" version="1.1" xmlns="http://www.w3.org/2000/svg" xmlns:xlink="http://www.w3.org/1999/xlink">
    <!-- Generator: Sketch 56.3 (81716) - https://sketch.com -->
    <title>icon_sns_twitter</title>
    <desc>Created with Sketch.</desc>
    <g id="Page-1" stroke="none" stroke-width="1" fill="none" fill-rule="evenodd">
        <g id="TOP-nologin" transform="translate(-1152.000000, -7384.000000)" fill="#6A6E6F">
            <g id="footer" transform="translate(0.000000, 7258.000000)">
                <g id="sns" transform="translate(1152.000000, 90.000000)">
                    <g id="sns-icon" transform="translate(0.000000, 36.000000)">
                        <g id="icon_sns_twitter">
                            <path d="M30,8.4859392 C29.006573,8.90758761 27.9389773,9.19256182 26.8184462,9.32072933 C27.9621859,8.66457975 28.8404587,7.625629 29.2540656,6.38771616 C28.1838034,6.99518854 26.9982882,7.43640234 25.7365302,7.67421167 C24.7260178,6.64386213 23.2863931,6 21.6931965,6 C18.6339076,6 16.1536486,8.37365086 16.1536486,11.301371 C16.1536486,11.7168757 16.2027324,12.1215107 16.2971469,12.5095104 C11.6933502,12.2884309 7.61169757,10.1778259 4.87960057,6.97042461 C4.40278723,7.75341843 4.12961703,8.66410716 4.12961703,9.635666 C4.12961703,11.4749075 5.10763744,13.0976064 6.59397564,14.0482766 C5.68587732,14.0207716 4.83180072,13.7823007 4.08487874,13.3852272 C4.0844837,13.4073446 4.0844837,13.4295565 4.0844837,13.4518629 C4.0844837,16.0205061 5.9939098,18.1632475 8.52799298,18.6502084 C8.0631296,18.7713815 7.57377373,18.8361269 7.0685175,18.8361269 C6.71159881,18.8361269 6.36455613,18.8029508 6.02640184,18.741041 C6.73125206,20.8472981 8.77696697,22.3800151 11.2009327,22.4228321 C9.30513552,23.8446786 6.9166246,24.6922288 4.32140898,24.6922288 C3.8743224,24.6922288 3.43335894,24.6671813 3,24.6182205 C5.45142105,26.1223929 8.36316252,27 11.4913859,27 C21.680259,27 27.2519039,18.9217609 27.2519039,11.9161213 C27.2519039,11.6862516 27.2465708,11.4576106 27.2359048,11.2302928 C28.318117,10.4828381 29.2573247,9.54908677 30,8.4859392" id="Fill-1"></path>
                        </g>
                    </g>
                </g>
            </g>
        </g>
    </g>
</svg>