<svg width="52" height="48" xmlns="http://www.w3.org/2000/svg"><path d="M15.465 31.334a1.413 1.413 0 0 0-1.402 1.416c0 .781.63 1.417 1.406 1.417h25.5c.777 0 1.406.634 1.406 1.416 0 .783-.63 1.417-1.406 1.417h-25.5c-2.326 0-4.219-1.907-4.219-4.25a4.257 4.257 0 0 1 2.543-3.9L8.716 5.833h-7.31A1.411 1.411 0 0 1 0 4.417C0 3.634.63 3 1.406 3h8.438c.659 0 1.23.461 1.373 1.11l1.005 4.557h34.372c.441 0 .857.208 1.123.563.265.355.35.815.229 1.243L42.32 30.306a1.408 1.408 0 0 1-1.352 1.027H15.465zM44.73 11.5H12.847l3.75 17h23.31l4.822-17zM14 41c0-2.206 1.794-4 4-4s4 1.794 4 4-1.794 4-4 4-4-1.794-4-4zm4-1.333c-.735 0-1.333.598-1.333 1.333s.598 1.333 1.333 1.333 1.333-.598 1.333-1.333-.598-1.333-1.333-1.333zM34 41c0-2.206 1.794-4 4-4s4 1.794 4 4-1.794 4-4 4-4-1.794-4-4zm4-1.333c-.735 0-1.333.598-1.333 1.333s.598 1.333 1.333 1.333 1.333-.598 1.333-1.333-.598-1.333-1.333-1.333z" fill="#FFF" fill-rule="nonzero"/></svg>