<?xml version="1.0" encoding="UTF-8"?>
<svg width="44px" height="44px" viewBox="0 0 44 44" version="1.1" xmlns="http://www.w3.org/2000/svg" xmlns:xlink="http://www.w3.org/1999/xlink">
    <!-- Generator: Sketch 58 (84663) - https://sketch.com -->
    <title>icon_sns_twitter_white</title>
    <desc>Created with Sketch.</desc>
    <g id="Page-1" stroke="none" stroke-width="1" fill="none" fill-rule="evenodd">
        <g id="NEWS-DETAIL" transform="translate(-467.000000, -2755.000000)" fill="#FFFFFF">
            <g id="social" transform="translate(116.000000, 2745.000000)">
                <g id="twitter" transform="translate(312.000000, 0.000000)">
                    <g id="Group-2" transform="translate(39.000000, 10.000000)">
                        <g id="Group-3">
                            <path d="M38,12.1963164 C36.8242061,12.7384615 35.5582556,13.1050921 34.2303222,13.2689057 C35.5864295,12.4264355 36.6269883,11.0905742 37.1172155,9.4992416 C35.8475084,10.2793066 34.4444444,10.8468039 32.945589,11.1510293 C31.7510125,9.82686891 30.0436697,9 28.1541351,9 C24.530962,9 21.5914774,12.0520043 21.5914774,15.815818 C21.5914774,16.3501625 21.6478253,16.8689057 21.7605212,17.3681473 C16.3041615,17.0834236 11.4676293,14.3726977 8.22762223,10.2442037 C7.66226448,11.2543879 7.33920291,12.4264355 7.33920291,13.6745395 C7.33920291,16.0381365 8.49809239,18.1248104 10.2599049,19.3475623 C9.18553736,19.3144095 8.17127429,19.0043337 7.28473323,18.4972914 L7.28473323,18.5811484 C7.28473323,21.8847237 9.5480425,24.6403034 12.5532664,25.2643554 C12.0029348,25.4242687 11.4225509,25.5042254 10.8233844,25.5042254 C10.4007748,25.5042254 9.98755649,25.4632719 9.58748606,25.3833153 C10.423314,28.0901408 12.8462758,30.0617551 15.7200211,30.1144095 C13.4736162,31.943662 10.6411927,33.0338028 7.56647297,33.0338028 C7.03680225,33.0338028 6.51276633,33.0026002 6,32.940195 C8.90567588,34.8708559 12.3579269,36 16.0637436,36 C28.1409873,36 34.7430886,25.6153846 34.7430886,16.607584 C34.7430886,16.3111593 34.7374538,16.0147346 34.7261842,15.7241603 C36.0090392,14.7627302 37.1228503,13.5633803 38,12.1963164" id="Twitter"></path>
                        </g>
                    </g>
                </g>
            </g>
        </g>
    </g>
</svg>