<?xml version="1.0" encoding="UTF-8"?>
<svg width="32px" height="32px" viewBox="0 0 32 32" version="1.1" xmlns="http://www.w3.org/2000/svg" xmlns:xlink="http://www.w3.org/1999/xlink">
    <!-- Generator: Sketch 56.3 (81716) - https://sketch.com -->
    <title>icon_sns_instagram</title>
    <desc>Created with Sketch.</desc>
    <g id="Page-1" stroke="none" stroke-width="1" fill="none" fill-rule="evenodd">
        <g id="TOP-nologin" transform="translate(-1152.000000, -7464.000000)" fill="#6A6E6F" fill-rule="nonzero">
            <g id="footer" transform="translate(0.000000, 7258.000000)">
                <g id="sns" transform="translate(1152.000000, 90.000000)">
                    <g id="sns-icon" transform="translate(0.000000, 116.000000)">
                        <g id="Group-3">
                            <path d="M20.4460814,6 C24.0598874,6 27,8.806433 27,12.2560132 L27,20.7439868 C27,24.193567 24.0599273,27 20.4460814,27 L11.5539186,27 C7.94007266,27 5,24.193567 5,20.7439868 L5,12.2560132 C5,8.806433 7.94007266,6 11.5539186,6 L20.4460814,6 Z M24.7868008,20.7439868 L24.7868008,12.2560132 C24.7868008,9.96764991 22.8433745,8.11259922 20.4460814,8.11259922 L11.5539186,8.11259922 C9.15662554,8.11259922 7.21319919,9.96764991 7.21319919,12.2560132 L7.21319919,20.7439868 C7.21319919,23.032312 9.15662554,24.8874008 11.5539186,24.8874008 L20.4460814,24.8874008 C22.8433745,24.8874008 24.7868008,23.032312 24.7868008,20.7439868 Z M16,11.0686528 C19.1374616,11.0686528 21.6899828,13.5051122 21.6899828,16.4999619 C21.6899828,19.4948116 19.1374616,21.9313091 16,21.9313091 C12.8625384,21.9313091 10.3100172,19.4947735 10.3100172,16.4999619 C10.3100172,13.5051503 12.8625384,11.0686528 16,11.0686528 Z M16,19.818748 C17.9201501,19.818748 19.4767836,18.3328706 19.4767836,16.5 C19.4767836,14.6670913 17.92019,13.181252 16,13.181252 C14.0798499,13.181252 12.5232164,14.6670913 12.5232164,16.5 C12.5232164,18.3329087 14.07981,19.818748 16,19.818748 Z M21.7010021,12.410893 C20.9479968,12.410893 20.3375654,11.8282084 20.3375654,11.1094306 C20.3375654,10.3906528 20.9479968,9.80796829 21.7010021,9.80796829 C22.4540074,9.80796829 23.0644389,10.3906528 23.0644389,11.1094306 C23.0644389,11.8282084 22.4540074,12.410893 21.7010021,12.410893 Z" id="Combined-Shape"></path>
                        </g>
                    </g>
                </g>
            </g>
        </g>
    </g>
</svg>