<?xml version="1.0" encoding="UTF-8"?>
<svg width="44px" height="82px" viewBox="0 0 44 82" version="1.1" xmlns="http://www.w3.org/2000/svg" xmlns:xlink="http://www.w3.org/1999/xlink">
    <!-- Generator: Sketch 59.1 (86144) - https://sketch.com -->
    <title>icon_product_wishlist</title>
    <desc>Created with Sketch.</desc>
    <g id="Page-1" stroke="none" stroke-width="1" fill="none" fill-rule="evenodd">
        <g id="_COLOR" transform="translate(-64.000000, -1371.000000)" fill-rule="nonzero" stroke-width="4">
            <g id="Group-2" transform="translate(64.000000, 1371.000000)">
                <path d="M22.0001024,38.0263596 C24.2701618,35.7022051 27.9770595,31.9239882 28.9722232,30.8937623 C31.9565993,27.8042389 34.093856,25.4641433 35.8736862,23.2922102 C40.0339308,18.215449 42,14.2602849 42,10.6910699 C42,5.69591158 39.1838949,2.62657467 34.9012508,2.09317885 C30.5988138,1.55731786 26.0581189,3.78281668 23.7455734,7.91793534 L21.9999134,11.0393921 L20.2543854,7.91786159 C17.9247958,3.75185305 13.3893218,1.53050624 9.08935464,2.0801891 C4.81630485,2.62643099 2,5.70909402 2,10.6910699 C2,14.2600901 3.96624736,18.2151164 8.12696595,23.292167 C9.90675396,25.463925 12.0437279,27.8036755 15.0285731,30.893786 C16.0199183,31.9200926 19.7280889,35.6999113 22.0001024,38.0263596 Z" id="Path" stroke="#DCDCDC" fill="#DBDCDC"></path>
                <path d="M22.0001024,79.0263596 C24.2701618,76.7022051 27.9770595,72.9239882 28.9722232,71.8937623 C31.9565993,68.8042389 34.093856,66.4641433 35.8736862,64.2922102 C40.0339308,59.215449 42,55.2602849 42,51.6910699 C42,46.6959116 39.1838949,43.6265747 34.9012508,43.0931789 C30.5988138,42.5573179 26.0581189,44.7828167 23.7455734,48.9179353 L21.9999134,52.0393921 L20.2543854,48.9178616 C17.9247958,44.751853 13.3893218,42.5305062 9.08935464,43.0801891 C4.81630485,43.626431 2,46.709094 2,51.6910699 C2,55.2600901 3.96624736,59.2151164 8.12696595,64.292167 C9.90675396,66.463925 12.0437279,68.8036755 15.0285731,71.893786 C16.0199183,72.9200926 19.7280889,76.6999113 22.0001024,79.0263596 Z" id="Path" stroke="#E25463" fill="#E25463"></path>
            </g>
        </g>
    </g>
</svg>