<?xml version="1.0" encoding="UTF-8"?>
<svg width="56px" height="40px" viewBox="0 0 56 40" version="1.1" xmlns="http://www.w3.org/2000/svg" xmlns:xlink="http://www.w3.org/1999/xlink">
    <!-- Generator: Sketch 56.3 (81716) - https://sketch.com -->
    <title>icon_global_kr</title>
    <desc>Created with Sketch.</desc>
    <defs>
        <filter x="-11.6%" y="-16.2%" width="123.2%" height="132.5%" filterUnits="objectBoundingBox" id="filter-1">
            <feOffset dx="0" dy="0" in="SourceAlpha" result="shadowOffsetOuter1"></feOffset>
            <feGaussianBlur stdDeviation="1.5" in="shadowOffsetOuter1" result="shadowBlurOuter1"></feGaussianBlur>
            <feColorMatrix values="0 0 0 0 0   0 0 0 0 0   0 0 0 0 0  0 0 0 0.32 0" type="matrix" in="shadowBlurOuter1" result="shadowMatrixOuter1"></feColorMatrix>
            <feMerge>
                <feMergeNode in="shadowMatrixOuter1"></feMergeNode>
                <feMergeNode in="SourceGraphic"></feMergeNode>
            </feMerge>
        </filter>
        <rect id="path-2" x="0" y="0" width="56" height="40" rx="2"></rect>
        <circle id="path-4" cx="9.33333333" cy="9.33333333" r="9.33333333"></circle>
    </defs>
    <g id="Symbols" stroke="none" stroke-width="1" fill="none" fill-rule="evenodd">
        <g id="footer-sp" transform="translate(-442.000000, -1164.000000)">
            <g id="footer">
                <g id="global" transform="translate(48.000000, 1132.000000)">
                    <g id="KR" filter="url(#filter-1)" transform="translate(394.000000, 32.000000)">
                        <mask id="mask-3" fill="white">
                            <use xlink:href="#path-2"></use>
                        </mask>
                        <use id="Mask" fill="#FFFFFF" xlink:href="#path-2"></use>
                        <g id="Oval-9" mask="url(#mask-3)">
                            <g transform="translate(19.000000, 11.000000)">
                                <mask id="mask-5" fill="white">
                                    <use xlink:href="#path-4"></use>
                                </mask>
                                <use id="Mask" stroke="none" fill="#E01B41" fill-rule="evenodd" xlink:href="#path-4"></use>
                                <path d="M-2.39808173e-14,10.6666667 C2.6666666,13.1666666 6.66666667,14.6666667 9.33333333,10.6666667 C12,6.66666667 17.3333333,6.66666652 18.6666667,10.6666667 C20,14.6666668 18.6666667,18.6666667 18.6666667,18.6666667 L-2.39808173e-14,18.6666667 C-2.39808173e-14,18.6666667 -2.6666666,8.16666672 -2.39808173e-14,10.6666667 Z" id="Rectangle-277" stroke="none" fill="#0E4B9C" fill-rule="evenodd" mask="url(#mask-5)"></path>
                            </g>
                        </g>
                        <path d="M37.6805919,10.3308531 C37.5860419,10.1691809 37.6330683,9.96762899 37.7914563,9.87735244 L39.5276346,8.8877814 C39.6834133,8.79899208 39.8857297,8.85702355 39.9808948,9.01974752 L43.6227406,15.2469853 C43.7172906,15.4086575 43.6702643,15.6102094 43.5118762,15.7004859 L41.7756979,16.690057 C41.6199192,16.7788463 41.4176028,16.7208148 41.3224377,16.5580909 L37.6805919,10.3308531 Z M41.1310463,8.36419472 C41.0364963,8.20252253 41.0835227,8.00097059 41.2419107,7.91069404 L42.9780891,6.921123 C43.1338678,6.83233368 43.3361842,6.89036515 43.4313493,7.05308912 L47.0731951,13.2803269 C47.1677451,13.4419991 47.1207187,13.643551 46.9623307,13.7338275 L45.2261523,14.7233986 C45.0703736,14.8121879 44.8680572,14.7541564 44.7728921,14.5914325 L41.1310463,8.36419472 Z M8.92680492,26.7196731 C8.83225494,26.5580009 8.87928131,26.356449 9.03766933,26.2661725 L10.7738477,25.2766014 C10.9296264,25.1878121 11.1319428,25.2458436 11.2271079,25.4085675 L14.8689537,31.6358053 C14.9635037,31.7974775 14.9164773,31.9990294 14.7580893,32.089306 L13.0219109,33.078877 C12.8661322,33.1676663 12.6638158,33.1096348 12.5686507,32.9469109 L8.92680492,26.7196731 Z M12.3772594,24.7530147 C12.2827094,24.5913425 12.3297357,24.3897906 12.4881238,24.2995141 L14.2243021,23.309943 C14.3800808,23.2211537 14.5823972,23.2791852 14.6775623,23.4419091 L18.3194081,29.6691469 C18.4139581,29.8308191 18.3669317,30.032371 18.2085437,30.1226476 L16.4723654,31.1122186 C16.3165867,31.2010079 16.1142703,31.1429764 16.0191052,30.9802525 L12.3772594,24.7530147 Z M41.3224377,23.4419091 C41.4169877,23.2802369 41.6173099,23.2196665 41.7756979,23.309943 L43.5118762,24.2995141 C43.6676549,24.3883034 43.7179057,24.5902908 43.6227406,24.7530147 L39.9808948,30.9802525 C39.8863448,31.1419247 39.6860227,31.2024951 39.5276346,31.1122186 L37.7914563,30.1226476 C37.6356776,30.0338582 37.5854268,29.8318708 37.6805919,29.6691469 L41.3224377,23.4419091 Z M44.7728921,25.4085675 C44.8674421,25.2468953 45.0677643,25.1863249 45.2261523,25.2766014 L46.9623307,26.2661725 C47.1181094,26.3549618 47.1683602,26.5569492 47.0731951,26.7196731 L43.4313493,32.9469109 C43.3367993,33.1085831 43.1364771,33.1691536 42.9780891,33.078877 L41.2419107,32.089306 C41.086132,32.0005166 41.0358812,31.7985292 41.1310463,31.6358053 L44.7728921,25.4085675 Z M12.5686507,7.05308912 C12.6632007,6.89141692 12.8635229,6.83084645 13.0219109,6.921123 L14.7580893,7.91069404 C14.913868,7.99948335 14.9641188,8.20147075 14.8689537,8.36419472 L11.2271079,14.5914325 C11.1325579,14.7531047 10.9322357,14.8136751 10.7738477,14.7233986 L9.03766933,13.7338275 C8.88189063,13.6450382 8.83163984,13.4430508 8.92680492,13.2803269 L12.5686507,7.05308912 Z M16.0191052,9.01974752 C16.1136552,8.85807533 16.3139773,8.79750485 16.4723654,8.8877814 L18.2085437,9.87735244 C18.3643224,9.96614176 18.4145732,10.1681292 18.3194081,10.3308531 L14.6775623,16.5580909 C14.5830123,16.7197631 14.3826901,16.7803335 14.2243021,16.690057 L12.4881238,15.7004859 C12.3323451,15.6116966 12.2820943,15.4097092 12.3772594,15.2469853 L16.0191052,9.01974752 Z" id="Rectangle-278" fill="#262626" opacity="0.75" mask="url(#mask-3)"></path>
                    </g>
                </g>
            </g>
        </g>
    </g>
</svg>