<?xml version="1.0" encoding="UTF-8"?>
<svg width="56px" height="40px" viewBox="0 0 56 40" version="1.1" xmlns="http://www.w3.org/2000/svg" xmlns:xlink="http://www.w3.org/1999/xlink">
    <!-- Generator: Sketch 56.3 (81716) - https://sketch.com -->
    <title>icon_global_us</title>
    <desc>Created with Sketch.</desc>
    <defs>
        <filter x="-11.6%" y="-16.2%" width="123.2%" height="132.5%" filterUnits="objectBoundingBox" id="filter-1">
            <feOffset dx="0" dy="0" in="SourceAlpha" result="shadowOffsetOuter1"></feOffset>
            <feGaussianBlur stdDeviation="1.5" in="shadowOffsetOuter1" result="shadowBlurOuter1"></feGaussianBlur>
            <feColorMatrix values="0 0 0 0 0   0 0 0 0 0   0 0 0 0 0  0 0 0 0.32 0" type="matrix" in="shadowBlurOuter1" result="shadowMatrixOuter1"></feColorMatrix>
            <feMerge>
                <feMergeNode in="shadowMatrixOuter1"></feMergeNode>
                <feMergeNode in="SourceGraphic"></feMergeNode>
            </feMerge>
        </filter>
        <rect id="path-2" x="0" y="0" width="56" height="40" rx="2"></rect>
        <linearGradient x1="50%" y1="0%" x2="50%" y2="100%" id="linearGradient-4">
            <stop stop-color="#FFFFFF" offset="0%"></stop>
            <stop stop-color="#F0F0F0" offset="100%"></stop>
        </linearGradient>
        <path d="M4,5.33333333 C3.26362033,5.33333333 2.66666667,4.73637967 2.66666667,4 C2.66666667,3.26362033 3.26362033,2.66666667 4,2.66666667 C4.73637967,2.66666667 5.33333333,3.26362033 5.33333333,4 C5.33333333,4.73637967 4.73637967,5.33333333 4,5.33333333 Z M9.33333333,5.33333333 C8.59695367,5.33333333 8,4.73637967 8,4 C8,3.26362033 8.59695367,2.66666667 9.33333333,2.66666667 C10.069713,2.66666667 10.6666667,3.26362033 10.6666667,4 C10.6666667,4.73637967 10.069713,5.33333333 9.33333333,5.33333333 Z M14.6666667,5.33333333 C13.930287,5.33333333 13.3333333,4.73637967 13.3333333,4 C13.3333333,3.26362033 13.930287,2.66666667 14.6666667,2.66666667 C15.4030463,2.66666667 16,3.26362033 16,4 C16,4.73637967 15.4030463,5.33333333 14.6666667,5.33333333 Z M20,5.33333333 C19.2636203,5.33333333 18.6666667,4.73637967 18.6666667,4 C18.6666667,3.26362033 19.2636203,2.66666667 20,2.66666667 C20.7363797,2.66666667 21.3333333,3.26362033 21.3333333,4 C21.3333333,4.73637967 20.7363797,5.33333333 20,5.33333333 Z M6.66666667,8 C5.930287,8 5.33333333,7.40304633 5.33333333,6.66666667 C5.33333333,5.930287 5.930287,5.33333333 6.66666667,5.33333333 C7.40304633,5.33333333 8,5.930287 8,6.66666667 C8,7.40304633 7.40304633,8 6.66666667,8 Z M12,8 C11.2636203,8 10.6666667,7.40304633 10.6666667,6.66666667 C10.6666667,5.930287 11.2636203,5.33333333 12,5.33333333 C12.7363797,5.33333333 13.3333333,5.930287 13.3333333,6.66666667 C13.3333333,7.40304633 12.7363797,8 12,8 Z M17.3333333,8 C16.5969537,8 16,7.40304633 16,6.66666667 C16,5.930287 16.5969537,5.33333333 17.3333333,5.33333333 C18.069713,5.33333333 18.6666667,5.930287 18.6666667,6.66666667 C18.6666667,7.40304633 18.069713,8 17.3333333,8 Z M20,10.6666667 C19.2636203,10.6666667 18.6666667,10.069713 18.6666667,9.33333333 C18.6666667,8.59695367 19.2636203,8 20,8 C20.7363797,8 21.3333333,8.59695367 21.3333333,9.33333333 C21.3333333,10.069713 20.7363797,10.6666667 20,10.6666667 Z M14.6666667,10.6666667 C13.930287,10.6666667 13.3333333,10.069713 13.3333333,9.33333333 C13.3333333,8.59695367 13.930287,8 14.6666667,8 C15.4030463,8 16,8.59695367 16,9.33333333 C16,10.069713 15.4030463,10.6666667 14.6666667,10.6666667 Z M9.33333333,10.6666667 C8.59695367,10.6666667 8,10.069713 8,9.33333333 C8,8.59695367 8.59695367,8 9.33333333,8 C10.069713,8 10.6666667,8.59695367 10.6666667,9.33333333 C10.6666667,10.069713 10.069713,10.6666667 9.33333333,10.6666667 Z M4,10.6666667 C3.26362033,10.6666667 2.66666667,10.069713 2.66666667,9.33333333 C2.66666667,8.59695367 3.26362033,8 4,8 C4.73637967,8 5.33333333,8.59695367 5.33333333,9.33333333 C5.33333333,10.069713 4.73637967,10.6666667 4,10.6666667 Z M6.66666667,13.3333333 C5.930287,13.3333333 5.33333333,12.7363797 5.33333333,12 C5.33333333,11.2636203 5.930287,10.6666667 6.66666667,10.6666667 C7.40304633,10.6666667 8,11.2636203 8,12 C8,12.7363797 7.40304633,13.3333333 6.66666667,13.3333333 Z M12,13.3333333 C11.2636203,13.3333333 10.6666667,12.7363797 10.6666667,12 C10.6666667,11.2636203 11.2636203,10.6666667 12,10.6666667 C12.7363797,10.6666667 13.3333333,11.2636203 13.3333333,12 C13.3333333,12.7363797 12.7363797,13.3333333 12,13.3333333 Z M17.3333333,13.3333333 C16.5969537,13.3333333 16,12.7363797 16,12 C16,11.2636203 16.5969537,10.6666667 17.3333333,10.6666667 C18.069713,10.6666667 18.6666667,11.2636203 18.6666667,12 C18.6666667,12.7363797 18.069713,13.3333333 17.3333333,13.3333333 Z M20,16 C19.2636203,16 18.6666667,15.4030463 18.6666667,14.6666667 C18.6666667,13.930287 19.2636203,13.3333333 20,13.3333333 C20.7363797,13.3333333 21.3333333,13.930287 21.3333333,14.6666667 C21.3333333,15.4030463 20.7363797,16 20,16 Z M14.6666667,16 C13.930287,16 13.3333333,15.4030463 13.3333333,14.6666667 C13.3333333,13.930287 13.930287,13.3333333 14.6666667,13.3333333 C15.4030463,13.3333333 16,13.930287 16,14.6666667 C16,15.4030463 15.4030463,16 14.6666667,16 Z M9.33333333,16 C8.59695367,16 8,15.4030463 8,14.6666667 C8,13.930287 8.59695367,13.3333333 9.33333333,13.3333333 C10.069713,13.3333333 10.6666667,13.930287 10.6666667,14.6666667 C10.6666667,15.4030463 10.069713,16 9.33333333,16 Z M4,16 C3.26362033,16 2.66666667,15.4030463 2.66666667,14.6666667 C2.66666667,13.930287 3.26362033,13.3333333 4,13.3333333 C4.73637967,13.3333333 5.33333333,13.930287 5.33333333,14.6666667 C5.33333333,15.4030463 4.73637967,16 4,16 Z" id="path-5"></path>
        <filter x="-2.7%" y="-3.8%" width="105.4%" height="115.0%" filterUnits="objectBoundingBox" id="filter-6">
            <feOffset dx="0" dy="1" in="SourceAlpha" result="shadowOffsetOuter1"></feOffset>
            <feColorMatrix values="0 0 0 0 0   0 0 0 0 0   0 0 0 0 0  0 0 0 0.06 0" type="matrix" in="shadowOffsetOuter1"></feColorMatrix>
        </filter>
    </defs>
    <g id="Symbols" stroke="none" stroke-width="1" fill="none" fill-rule="evenodd">
        <g id="footer-sp" transform="translate(-362.000000, -1164.000000)">
            <g id="footer">
                <g id="global" transform="translate(48.000000, 1132.000000)">
                    <g id="US" filter="url(#filter-1)" transform="translate(314.000000, 32.000000)">
                        <mask id="mask-3" fill="white">
                            <use xlink:href="#path-2"></use>
                        </mask>
                        <use id="Mask" fill="#FFFFFF" xlink:href="#path-2"></use>
                        <rect id="Path" fill="#D02F44" mask="url(#mask-3)" x="0" y="0" width="56" height="2.66666667"></rect>
                        <rect id="Rectangle-511" fill="#D02F44" mask="url(#mask-3)" x="0" y="5.33333333" width="56" height="2.66666667"></rect>
                        <rect id="Rectangle-511" fill="#D02F44" mask="url(#mask-3)" x="0" y="10.6666667" width="56" height="2.66666667"></rect>
                        <rect id="Rectangle-511" fill="#D02F44" mask="url(#mask-3)" x="0" y="16" width="56" height="2.66666667"></rect>
                        <rect id="Rectangle-511" fill="#D02F44" mask="url(#mask-3)" x="0" y="21.3333333" width="56" height="2.66666667"></rect>
                        <rect id="Rectangle-511" fill="#D02F44" mask="url(#mask-3)" x="0" y="26.6666667" width="56" height="2.66666667"></rect>
                        <rect id="Rectangle-511" fill="#D02F44" mask="url(#mask-3)" x="0" y="32" width="56" height="2.66666667"></rect>
                        <rect id="Rectangle-511" fill="#D02F44" mask="url(#mask-3)" x="0" y="37.3333333" width="56" height="2.66666667"></rect>
                        <rect id="Rectangle-511" fill="#46467F" mask="url(#mask-3)" x="0" y="0" width="24" height="18.6666667"></rect>
                        <g id="Oval-43" mask="url(#mask-3)">
                            <use fill="black" fill-opacity="1" filter="url(#filter-6)" xlink:href="#path-5"></use>
                            <use fill="url(#linearGradient-4)" fill-rule="evenodd" xlink:href="#path-5"></use>
                        </g>
                    </g>
                </g>
            </g>
        </g>
    </g>
</svg>