<?xml version="1.0" encoding="UTF-8"?>
<svg width="44px" height="44px" viewBox="0 0 44 44" version="1.1" xmlns="http://www.w3.org/2000/svg" xmlns:xlink="http://www.w3.org/1999/xlink">
    <!-- Generator: Sketch 58 (84663) - https://sketch.com -->
    <title>icon_sns_facebook_white</title>
    <desc>Created with Sketch.</desc>
    <g id="Page-1" stroke="none" stroke-width="1" fill="none" fill-rule="evenodd">
        <g id="NEWS-DETAIL" transform="translate(-314.000000, -2755.000000)" fill="#FFFFFF">
            <g id="social" transform="translate(116.000000, 2745.000000)">
                <g id="facebook" transform="translate(159.000000, 0.000000)">
                    <g id="Group" transform="translate(39.000000, 10.000000)">
                        <path d="M30.3237119,6.00624203 L26.0057728,6 C21.1552894,6 18.019772,9.09147182 18.019772,13.8753674 L18.019772,17.5069833 L13.6780199,17.5069833 C13.3043729,17.5069833 13,17.7978621 13,18.1586517 L13,23.4206871 C13,23.7798122 13.3043729,24.0723556 13.6780199,24.0723556 L18.019772,24.0723556 L18.019772,37.3483316 C18.019772,37.7074566 18.3241449,38 18.6995237,38 L24.3618127,38 C24.7371915,38 25.0415644,37.7074566 25.0415644,37.3483316 L25.0415644,24.0723556 L30.1171886,24.0723556 C30.4925675,24.0723556 30.7956415,23.7798122 30.7956415,23.4206871 L30.7986722,18.1586517 C30.7986722,17.9863716 30.7259345,17.8207496 30.5990763,17.6971573 C30.4722182,17.5752295 30.299899,17.5069833 30.1189205,17.5069833 L25.0415644,17.5069833 L25.0415644,14.4284117 C25.0415644,12.9490494 25.408717,12.1979245 27.4129023,12.1979245 L30.3219801,12.19626 C30.6973589,12.19626 31,11.9037166 31,11.5445915 L31,6.65999116 C31,6.2987854 30.6973589,6.00790658 30.3237119,6.00624203 L30.3237119,6.00624203 Z" id="facebook-logo"></path>
                    </g>
                </g>
            </g>
        </g>
    </g>
</svg>