<?xml version="1.0" encoding="UTF-8"?>
<svg width="56px" height="40px" viewBox="0 0 56 40" version="1.1" xmlns="http://www.w3.org/2000/svg" xmlns:xlink="http://www.w3.org/1999/xlink">
    <!-- Generator: Sketch 56.3 (81716) - https://sketch.com -->
    <title>icon_global_hk</title>
    <desc>Created with Sketch.</desc>
    <defs>
        <filter x="-11.6%" y="-16.2%" width="123.2%" height="132.5%" filterUnits="objectBoundingBox" id="filter-1">
            <feOffset dx="0" dy="0" in="SourceAlpha" result="shadowOffsetOuter1"></feOffset>
            <feGaussianBlur stdDeviation="1.5" in="shadowOffsetOuter1" result="shadowBlurOuter1"></feGaussianBlur>
            <feColorMatrix values="0 0 0 0 0   0 0 0 0 0   0 0 0 0 0  0 0 0 0.32 0" type="matrix" in="shadowBlurOuter1" result="shadowMatrixOuter1"></feColorMatrix>
            <feMerge>
                <feMergeNode in="shadowMatrixOuter1"></feMergeNode>
                <feMergeNode in="SourceGraphic"></feMergeNode>
            </feMerge>
        </filter>
        <rect id="path-2" x="0" y="0" width="56" height="40" rx="2"></rect>
    </defs>
    <g id="Symbols" stroke="none" stroke-width="1" fill="none" fill-rule="evenodd">
        <g id="footer-sp" transform="translate(-602.000000, -1164.000000)">
            <g id="footer">
                <g id="global" transform="translate(48.000000, 1132.000000)">
                    <g id="HK" filter="url(#filter-1)" transform="translate(554.000000, 32.000000)">
                        <mask id="mask-3" fill="white">
                            <use xlink:href="#path-2"></use>
                        </mask>
                        <use id="Mask" fill="#FFFFFF" xlink:href="#path-2"></use>
                        <rect id="Rectangle-2" fill="#F0371D" mask="url(#mask-3)" x="0" y="0" width="56" height="40"></rect>
                        <path d="M32.0318198,19.6525921 C29.9123539,18.3178081 29.3757597,20.7431143 29.3757597,19.6525921 C29.3757597,17.4410496 31.7540769,15.6482402 34.6878799,15.6482402 C37.6216828,15.6482402 40,17.4410496 40,19.6525921 C37.4797907,19.6525921 37.2280325,20.9873761 36.0159099,20.9873761 C34.5287792,20.9873761 34.1512857,20.9873761 32.0318198,19.6525921 Z M35.3518949,19.1443586 C35.7186202,19.1443586 36.0159099,18.845557 36.0159099,18.4769666 C36.0159099,18.1083762 35.7186202,17.8095747 35.3518949,17.8095747 C34.9851695,17.8095747 34.6878799,18.1083762 34.6878799,18.4769666 C34.6878799,18.845557 34.9851695,19.1443586 35.3518949,19.1443586 Z M30.5419128,24.3832701 C31.1499935,21.944816 28.6892448,22.18135 29.7211451,21.8443601 C31.8138045,21.1609559 34.2451804,22.8803648 35.1517754,25.6847673 C36.0583704,28.4891698 35.0968753,31.3165958 33.0042159,32 C32.2254284,29.5909488 30.8845993,29.7627658 30.5100328,28.604106 C30.0504841,27.1825677 29.9338322,26.8217242 30.5419128,24.3832701 Z M32.0487855,27.3998548 C32.1621098,27.7504051 32.5367167,27.9422475 32.8854932,27.8283468 C33.2342698,27.7144461 33.4251415,27.3379342 33.3118171,26.9873838 C33.1984927,26.6368335 32.8238859,26.4449911 32.4751094,26.5588918 C32.1263328,26.6727925 31.9354611,27.0493045 32.0487855,27.3998548 Z M25.6051295,24.420938 C28.1004099,24.2486744 27.1161778,21.9695543 27.7539273,22.8518053 C29.0472619,24.6409808 28.1716177,27.4964433 25.7981212,29.2296593 C23.4246248,30.9628754 20.4520709,30.9175114 19.1587363,29.1283359 C21.1976285,27.6394604 20.6207087,26.4108652 21.6013365,25.694774 C22.8044505,24.8162151 23.1098491,24.5932015 25.6051295,24.420938 Z M23.216353,26.7935233 C22.9196659,27.0101753 22.853896,27.427542 23.0694518,27.7257379 C23.2850075,28.0239338 23.7002624,28.0900382 23.9969494,27.8733862 C24.2936365,27.6567342 24.3594064,27.2393675 24.1438506,26.9411716 C23.9282949,26.6429757 23.51304,26.5768713 23.216353,26.7935233 Z M24.0439366,19.71354 C24.9780241,22.0455294 26.8304838,20.4004217 26.1927343,21.2826726 C24.8993998,23.0718481 21.9268459,23.1172121 19.5533495,21.3839961 C17.179853,19.65078 16.3042088,16.7953175 17.5975434,15.006142 C19.6364356,16.4950175 20.6207087,15.563887 21.6013365,16.2799781 C22.8044505,17.158537 23.1098491,17.3815506 24.0439366,19.71354 Z M21.0607189,18.1632937 C20.7640318,17.9466417 20.3487769,18.0127461 20.1332212,18.310942 C19.9176654,18.6091379 19.9834353,19.0265046 20.2801224,19.2431566 C20.5768094,19.4598086 20.9920643,19.3937042 21.2076201,19.0955083 C21.4231758,18.7973124 21.3574059,18.3799457 21.0607189,18.1632937 Z M28.0158496,16.7665402 C26.097867,18.3800525 28.2269822,19.64244 27.1950819,19.3054502 C25.1024226,18.6220459 24.1409275,15.7946199 25.0475225,12.9902174 C25.9541174,10.1858149 28.3854934,8.46640607 30.4781527,9.14981028 C29.6993652,11.5588614 30.8845993,12.2119863 30.5100328,13.3706462 C30.0504841,14.7921844 29.9338322,15.1530279 28.0158496,16.7665402 Z M28.5608962,13.4358499 C28.6742206,13.0852996 28.4833489,12.7087877 28.1345723,12.594887 C27.7857958,12.4809863 27.411189,12.6728287 27.2978646,13.023379 C27.1845402,13.3739293 27.3754119,13.7504413 27.7241885,13.864342 C28.072965,13.9782427 28.4475719,13.7864003 28.5608962,13.4358499 Z" id="Oval-145" fill="#FFFFFF" mask="url(#mask-3)"></path>
                    </g>
                </g>
            </g>
        </g>
    </g>
</svg>