<svg width="483" height="48" xmlns="http://www.w3.org/2000/svg"><path d="M9.1 22.861c-4.927 0-9.85-3.878-9.005-12.673C.714 3.827 5.246.006 13.77.006c0 0 6.52-.054 10.944.167C29.67.41 32.221 2 32.221 4.729c0 1.667.677 5.626-5.866 5.626-4.15 0-5.933-1.811-11.69-2.255-5.287-.378-5.253 7.665-.726 7.454 1.102-.037 5.02-.581 6.964-.645 6.509-.223 11.769 1.099 11.769 9.805 0 6.623-4.423 10.148-9.222 10.391-4.497.588-13.244.245-16.716.245-5.664 0-5.93-9.19.31-8.827 1.792.106 11.095 1.272 11.095 1.272 3.531 0 3.767-5.02-.132-5.02-1.624 0-6.616.086-8.908.086zm41.532-3.228h-.285c-2.854 0-3.956 1.118-3.979 3.993l-.014 1.723c-.023 1.533.34 2.694 1.04 3.31.485.534 1.27.774 2.34.774h1.632c1.063 0 1.817-.24 2.297-.775.66-.615.912-1.776.936-3.309l.015-1.723c.027-2.875-1.14-3.993-3.982-3.993zm14.216 5.817c.057 3.743-1.947 6.672-5.881 8.682-1.866.959-4.767 1.5-7.896 1.5h-1.058c-3.134 0-6.023-.541-7.936-1.5-3.871-2.01-5.83-4.939-5.88-8.682l-.023-1.677c-.063-4.326 1.732-7.307 5.014-8.883 2.035-1.017 5.04-1.493 9.195-1.493h.184c4.15 0 7.13.476 9.256 1.493 3.264 1.576 4.94 4.557 5.006 8.883l.02 1.677zm31.643 5.663c.006 2.488-2.247 4.518-5.1 4.518-1.438 0-2.887-.54-3.823-1.5-.856-.85-1.3-1.92-1.307-3.018l-.03-7.397c.025-1.528-.294-2.694-.945-3.314-.487-.52-1.275-.77-2.33-.77h-1.644c-1.638 0-3.346.483-3.334 4.084l.037 7.397c.005 2.488-2.245 4.518-5.046 4.518-1.49 0-2.836-.54-3.821-1.5-.861-.85-1.298-1.92-1.316-3.018l-.02-7.545c0-3.745 1.961-6.623 5.862-8.625 1.9-.964 4.795-1.503 7.939-1.503h1.053c3.134 0 6.028.54 7.89 1.503 3.916 2.002 5.912 4.88 5.917 8.625l.018 7.545zm31.837 0c0 2.488-2.238 4.518-5.086 4.518-1.453 0-2.902-.54-3.833-1.5-.862-.85-1.295-1.92-1.304-3.018l-.038-7.397c.026-1.528-.291-2.694-.949-3.314-.482-.52-1.263-.77-2.321-.77h-1.643c-1.633 0-3.342.483-3.33 4.084l.035 7.397c.003 2.488-2.25 4.518-5.056 4.518-1.483 0-2.84-.54-3.827-1.5-.862-.85-1.291-1.92-1.291-3.018l-.035-7.545c-.011-3.745 1.967-6.623 5.854-8.625 1.905-.964 4.813-1.503 7.946-1.503h1.055c3.132 0 6.027.54 7.876 1.503 3.932 2.002 5.92 4.88 5.932 8.625l.015 7.545zm31.65 1.084s.03.493-.025 1.89c-.08 1.768-1.021 5.04-2.307 6.964-3.027 4.618-7.521 6.949-15.07 6.949-.703 0-.703-.02-1.415-.058-1.06-.072-2.466-.148-3.563-1.538-.498-.63-1.226-3.228.338-4.723.753-.726 1.594-1.108 2.236-1.135 2.718-.093 3.776 0 5.053-.397 1.255-.402 2.02-1.233 2.388-2.297.117-.292.106-.593.039-.907-.272-.804-.687-1.09-1.247-1.142h.023a8.887 8.887 0 0 0-1.342-.135h.056c-3.14 0-6.032-.524-7.93-1.483-3.88-2.035-5.882-4.944-5.891-8.697l-.012-7.479a4.195 4.195 0 0 1 1.267-3.037 5.427 5.427 0 0 1 3.816-1.534c1.45 0 2.804.579 3.794 1.534a4.297 4.297 0 0 1 1.307 3.037l-.016 7.379c-.014 1.551.357 2.698 1.05 3.323.477.53 1.265.763 2.323.763h1.65c1.054 0 1.811-.233 2.296-.763.653-.625.914-1.772.923-3.323l.026-7.379c-.01-1.103.47-2.2 1.252-3.037a5.568 5.568 0 0 1 3.826-1.534c1.449 0 2.823.618 3.795 1.534.864.864 1.34 1.934 1.35 4.631l.01 12.594zM199.436 7.78c-.6-.616-1.714-.964-3.2-.964H194.3c-1.494 0-2.566.348-3.212.964-.596.62-.946 1.676-.928 3.128 0 0 .012 3.596.008 5.701h10.219l-.015-5.701c0-1.452-.33-2.508-.938-3.128zm11.596 23.142c.036 2.588-2.38 4.709-5.278 4.709-1.538 0-2.915-.582-3.949-1.596-.866-.858-1.366-1.971-1.38-3.113l-.026-3.983c-.025-1.49-.34-2.692-1.11-3.37-.463-.474-1.113-.722-1.974-.722h-7.141l.026 8.075c.022 2.588-2.34 4.709-5.283 4.709a5.722 5.722 0 0 1-3.96-1.596c-.864-.858-1.295-1.971-1.328-3.113l-.049-19.875c-.02-4.323 1.884-7.446 5.518-8.983 2.243-.951 5.546-1.432 10.088-1.432h.086c4.532 0 7.909.53 10.093 1.432 3.704 1.59 5.602 4.66 5.627 8.983l.04 19.875zm32.282.191c0 2.488-2.247 4.518-5.09 4.518-1.46 0-2.905-.54-3.838-1.5-.853-.85-1.283-1.92-1.297-3.018l-.033-7.397c.018-1.528-.301-2.694-.952-3.314-.479-.52-1.272-.77-2.32-.77h-1.659c-1.633 0-3.34.483-3.323 4.084l.038 7.397c.01 2.488-2.247 4.518-5.053 4.518-1.488 0-2.844-.54-3.83-1.5-.857-.85-1.292-1.92-1.292-3.018l-.036-7.545c0-3.745 1.965-6.623 5.861-8.625 1.9-.964 4.806-1.503 7.933-1.503h1.068c3.127 0 6.028.54 7.877 1.503 3.937 2.002 5.915 4.88 5.915 8.625l.03 7.545zm49.261-11.853h-1.65c-1.537 0-3.046.802-3.261 3.787h7.816c.198 0 .37-.09.399-.147-.015-.053-.015-.053.016-.087-.14-2.124-1.254-3.553-3.32-3.553zm12.794 4.116c-.175 2.551-2.386 4.71-5.277 4.71h-12.016c.399.916 1.198 2.116 3.562 2.116h6.712c.957 0 1.864.138 2.572.825.596.568.912.999.889 1.82.023 1.685-1.557 2.785-3.434 2.785h-6.475c-4.135 0-7.098-.44-9.211-1.448-3.27-1.538-4.946-4.508-5.018-8.887l-.042-1.73c-.054-3.743 1.96-6.623 5.859-8.623 1.906-.966 4.802-1.505 7.935-1.505h.097c3.134 0 6.027.54 7.88 1.505 3.93 2 6.223 4.603 5.974 8.3l-.007.132zm14.929 7.546c.021 2.589-2.383 4.71-5.28 4.71-1.546 0-2.956-.584-3.934-1.543-.925-.86-1.368-2.026-1.395-3.167l-.065-25.607c-.027-1.13.491-2.248 1.32-3.104 1.029-1.017 2.414-1.58 3.959-1.58 2.904 0 5.35 2.102 5.333 4.684l.062 25.607zm-60.704-1.49h1.634c1.063 0 1.818-.238 2.302-.774.651-.616.913-1.775.94-3.31l.012-1.723c.031-2.875-1.131-3.993-3.983-3.993h-.284c-2.853 0-3.952 1.118-3.993 3.993l-.008 1.724c-.013 1.534.342 2.693 1.05 3.309.482.536 1.267.774 2.33.774zm15.174 3.915l.01.23h-.01c-.005.153-.015.272-.027.434-.073 1.768-1.015 5.04-2.298 6.954-3.04 4.633-7.524 6.959-15.075 6.959-.701 0-.69-.03-1.413-.054-1.063-.085-2.476-.152-3.568-1.551-.489-.626-1.226-3.21.345-4.733.747-.702 1.592-1.08 2.232-1.133 2.715-.07 3.773.01 5.051-.385 1.255-.382 2.029-1.218 2.395-2.287.109-.292.104-.603.039-.914-.194-.577-.477-.883-.822-1.022a7.272 7.272 0 0 0-1.693-.214h-.052c-3.142 0-6.024-.54-7.935-1.5-3.884-2.01-5.792-4.937-5.872-8.638l-.042-1.72c-.055-4.327 1.73-7.306 5.027-8.882 2.051-.96 5.051-1.453 9.203-1.453h.197c4.15 0 7.104.436 9.217 1.453 3.264 1.528 4.95 4.555 5.014 8.882l.037 1.72.04 6.628h.01s.02.348-.01 1.226zm71.905-10.486c-4.93 0-9.853-3.878-9.007-12.673.627-6.361 5.156-10.182 13.678-10.182 0 0 6.517-.054 10.945.167 4.953.238 7.504 1.828 7.504 4.556 0 1.667.68 5.626-5.865 5.626-4.15 0-5.937-1.811-11.695-2.255-5.29-.378-5.255 7.665-.726 7.454 1.108-.037 5.024-.581 6.969-.645 6.51-.223 11.77 1.099 11.77 9.805 0 6.623-4.423 10.148-9.227 10.391-4.492.588-13.237.245-16.714.245-5.664 0-5.93-9.19.31-8.827 1.795.106 11.098 1.272 11.098 1.272 3.528 0 3.767-5.02-.135-5.02-1.626 0-6.617.086-8.905.086zm67.662-3.228h-.29c-2.852 0-3.948 1.118-3.977 3.993l-.02 1.723c-.02 1.533.349 2.694 1.045 3.31.484.534 1.267.774 2.335.774h1.636c1.061 0 1.821-.24 2.298-.775.661-.615.915-1.776.94-3.309l.013-1.723c.03-2.875-1.141-3.993-3.98-3.993zm14.213 5.817c.059 3.743-1.944 6.672-5.882 8.682-1.867.959-4.763 1.5-7.892 1.5h-1.063c-3.134 0-6.03-.541-7.936-1.5-3.865-2.01-5.831-4.939-5.877-8.682l-.024-1.677c-.066-4.326 1.732-7.307 5.019-8.883 2.031-1.017 5.038-1.493 9.183-1.493h.193c4.15 0 7.13.476 9.249 1.493 3.264 1.576 4.949 4.557 5.015 8.883l.015 1.677zm41.165-6.19h-1.647c-1.539 0-3.053.802-3.264 3.787h7.807c.206 0 .376-.09.4-.147-.006-.053-.006-.053.025-.087-.141-2.124-1.252-3.553-3.32-3.553zm12.79 4.116c-.175 2.551-2.382 4.71-5.277 4.71h-12.017c.395.916 1.198 2.116 3.563 2.116h6.71c.955 0 1.868.138 2.578.825.587.568.91.999.89 1.82.02 1.685-1.563 2.785-3.44 2.785h-6.469c-4.137 0-7.106-.44-9.214-1.448-3.27-1.538-4.94-4.508-5.019-8.887l-.042-1.73c-.046-3.743 1.96-6.623 5.86-8.623 1.908-.966 4.801-1.505 7.935-1.505h.102c3.13 0 6.022.54 7.878 1.505 3.928 2 6.217 4.603 5.968 8.3l-.007.132zm-35.885-9.951c4.21-1.738 5.91.673 5.91.673 1.375 1.94.823 5.34-3.344 5.817 0 0-7.065.486-7.034 5.754l.049 6.542c.01 1.877-1.493 3.591-4.712 3.591 0 0 1.802.03-.775.03-5.067 0-4.631-3.712-4.631-3.712s-.197-13.384-.197-16.522c0-4.427 3.883-4.618 3.883-4.618l1.553-.053s4.454-.201 4.454 4.407c0 0-.152 2.738.366 1.6.425-.936 1.866-2.43 4.478-3.51zm-67.582 13.142c0-2.951-1.187-3.366-1.187-3.366h-1.405c-3.565 0-3.565-2.566-3.565-2.566v-.424c0-2.951 2.984-2.785 2.984-2.785 1.587.062 2.71.02 2.71.02.64 0 .502-1.5.502-1.5l-.015-1.037s-.257-4.995 4.868-4.995l.957.02s4.635-.02 4.635 4.975l.024.937s-.141 1.58.772 1.6h2.455s4.102-.21 4.102 3.137c0 0 .044-.372-.027.344-.236 2.144-1.708 2.345-3.694 2.353 0 0-.562-.017-1.37-.017-2.143 0-2.262 3.027-2.262 3.027v1.037s.024 2.922 2.333 2.922l1.1-.047c.614 0 3.94-.26 3.94 2.62 0 2.173-1.249 2.81-4.62 2.81h-5.796c-8.022 0-7.443-5.148-7.443-5.148s.002-1.902.002-3.917z" fill="#E25463" fill-rule="evenodd"/></svg>